# xmcd
#
# Track frame offsets: 
#        150
#        10386
#        22267
#        34156
#        51086
#        62952
#        70853
#        82880
#        96398
#        104212
#        116046
#        128200
#        140068
#        151633
#        170539
#        180927
#        192793
#        204762
#        220379
#        234963
#        247265
#        262018
#        275407
#        285846
#
# Disc length: 4026 seconds
#
# Revision: 1
# Processed by: cddbd v1.5.2PL0 Copyright (c) Steve Scherf et al.
# Submitted via: ExactAudioCopy v0.99pb5
#
DISCID=610fb818
DTITLE=Raymond Froggatt - The Voice And Writing Of Raymond Froggatt
DYEAR=2004
DGENRE=Oldies
TTITLE0=Always goodbye
TTITLE1=Corrina Corrina
TTITLE2=Callow-la-vita)
TTITLE3=Lonely old world
TTITLE4=ABC goldfisch
TTITLE5=Sonnet by Hartley Cain
TTITLE6=Something's goin' on
TTITLE7=The old accordion
TTITLE8=Froggatt went a courtin'
TTITLE9=Jeannie with the light brown hair (A tribute to Stephen Foster
TTITLE9=)
TTITLE10=We're all going to the seaside
TTITLE11=Roly
TTITLE12=Callow-la-vita (Single Mix)
TTITLE13=Lost autumn
TTITLE14=Just a little bit of love
TTITLE15=ABC goldfisch (Single Mix)
TTITLE16=Roly (Single Mix)
TTITLE17=Time goes by
TTITLE18=Ring-ting-a-ling
TTITLE19=Anything you want to
TTITLE20=Movin' down South
TTITLE21=It's only me
TTITLE22=Lazy Jack
TTITLE23=Hasn't the lord blessed us
EXTD=
EXTT0=
EXTT1=
EXTT2=
EXTT3=
EXTT4=
EXTT5=
EXTT6=
EXTT7=
EXTT8=
EXTT9=
EXTT10=
EXTT11=
EXTT12=
EXTT13=
EXTT14=
EXTT15=
EXTT16=
EXTT17=
EXTT18=
EXTT19=
EXTT20=
EXTT21=
EXTT22=
EXTT23=
PLAYORDER=
